<svg xmlns="http://www.w3.org/2000/svg" xmlns:xlink="http://www.w3.org/1999/xlink" viewBox="0 0 160.84 241.75"><defs><style>.cls-1{fill:url(#linear-gradient)}.cls-2{fill:url(#linear-gradient-2)}</style><linearGradient id="linear-gradient" x1="5375.71" x2="5536.55" y1="-5271.65" y2="-5271.65" gradientTransform="translate(-5191.23 -5375.71) rotate(90)" gradientUnits="userSpaceOnUse"><stop offset="0" stop-color="#fff"/><stop offset=".03" stop-color="#fff" stop-opacity=".83"/><stop offset=".07" stop-color="#fff" stop-opacity=".66"/><stop offset=".11" stop-color="#fff" stop-opacity=".5"/><stop offset=".15" stop-color="#fff" stop-opacity=".37"/><stop offset=".19" stop-color="#fff" stop-opacity=".25"/><stop offset=".25" stop-color="#fff" stop-opacity=".16"/><stop offset=".3" stop-color="#fff" stop-opacity=".09"/><stop offset=".37" stop-color="#fff" stop-opacity=".04"/><stop offset=".47" stop-color="#fff" stop-opacity=".01"/><stop offset=".66" stop-color="#fff" stop-opacity="0"/></linearGradient><linearGradient id="linear-gradient-2" x1="5456.62" x2="5617.46" y1="-5271.65" y2="-5271.65" xlink:href="#linear-gradient"/></defs><title>augmint</title><g id="Layer_2" data-name="Layer 2"><g id="Layer_1-2" data-name="Layer 1"><path d="M80.42,160.84a80.42,80.42,0,1,1,80.42-80.42A80.52,80.52,0,0,1,80.42,160.84Zm0-80.91a.49.49,0,1,0,.49.49A.55.55,0,0,0,80.42,79.93Z" class="cls-1"/><path d="M80.42,241.75a80.42,80.42,0,1,1,80.42-80.42A80.52,80.52,0,0,1,80.42,241.75Zm0-80.91a.49.49,0,1,0,.49.49A.55.55,0,0,0,80.42,160.84Z" class="cls-2"/></g></g></svg>