<svg xmlns="http://www.w3.org/2000/svg" xmlns:xlink="http://www.w3.org/1999/xlink" id="Layer_1" x="0" y="0" version="1.1" viewBox="0 0 200 200" xml:space="preserve" style="enable-background:new 0 0 200 200"><style type="text/css">.st0{fill:#fff;stroke:#000;stroke-width:12;stroke-miterlimit:10}.st1{fill:#98c23a}.st2{fill:#96c12c}</style><g id="XMLID_97_"><circle id="XMLID_112_" cx="100" cy="100" r="83" class="st0"/><g id="XMLID_107_"><path id="XMLID_108_" d="M46.37,92.06V60.69c0-5.87,2.83-8.81,8.5-8.81h31.08c5.79,0,8.69,2.94,8.69,8.81v31.37H80.33V64.17H60.69 v27.88H46.37z"/><path id="XMLID_109_" d="M94.64,138.87c0,5.83-2.9,8.75-8.69,8.75H54.88c-5.67,0-8.5-2.92-8.5-8.75v-37.6h14.32h19.64 h14.31V138.87z" class="st1"/><path id="XMLID_110_" d="M104.84,101.77l0-40.44c0-5.87,2.94-8.81,8.81-8.81h30.92c6.04,0,9.06,2.94,9.06,8.81v22.39 h-14.76v-18.9h-19.2v36.95H104.84z" class="st2"/><path id="XMLID_111_" d="M153.63,139.37c0,5.83-2.93,8.75-8.78,8.75h-31.41c-5.73,0-8.59-2.92-8.59-8.75v-37.6h14.47h19.85h14.47 V139.37z"/></g></g></svg>