<svg xmlns="http://www.w3.org/2000/svg" xmlns:xlink="http://www.w3.org/1999/xlink" id="Layer_1" x="0" y="0" version="1.1" viewBox="0 0 2442 2442" xml:space="preserve" style="enable-background:new 0 0 2442 2442"><style type="text/css">.st0{fill:url(#SVGID_1_)}.st1{fill:#fff}</style><linearGradient id="SVGID_1_" x1="357.623" x2="2084.377" y1="2084.377" y2="357.623" gradientUnits="userSpaceOnUse"><stop offset="0" style="stop-color:#6a69fd"/><stop offset="1" style="stop-color:#ae48f1"/></linearGradient><circle cx="1221" cy="1221" r="1221" class="st0"/><g><path d="M1221.9,1775.5l-682.5-394V731.9l682.5-330.7l682.5,330.7v649.7L1221.9,1775.5z M609.4,1341.1l612.5,353.6 l612.5-353.6V775.7l-612.5-296.8L609.4,775.7V1341.1z" class="st1"/><g><g><g><path d="M1031.6,881.8v8.9c0,148,190.2,226.9,196.1,229.3V575.5C1221.8,581.2,1031.6,763.5,1031.6,881.8z" class="st1"/></g><g><path d="M1227.7,1120.2L1227.7,1120.2c-0.1,0-0.1,0-0.1,0H1227.7z" class="st1"/></g><g><path d="M1227.9,1120.2c0,0,0,0-0.1-0.1v0.1H1227.9z" class="st1"/></g><g><path d="M1227.6,575.4c0,0,0,0,0.1,0.1v-0.1H1227.6z" class="st1"/></g><path d="M1227.7,575.5v544.6c6-2.4,196.1-81.4,196.1-229.3v-8.9C1423.8,763.5,1233.7,581.2,1227.7,575.5z" class="st1"/><g><path d="M1227.7,575.4v0.1c0.1-0.1,0.1-0.1,0.1-0.1H1227.7z" class="st1"/></g></g><g><g><path d="M1224.1,1107.6c0,0-79.9-74.4-230.9-64.3s-219.7,215-315.3,208.3c0,0,164.9,134.1,307.4,157.5 C1113.7,1428.7,1246.4,1333,1224.1,1107.6z" class="st1"/></g><path d="M1227.8,1102.3c0,0,33.3-33.1,112.6-51c31-7,67.8-10.8,110.2-7.9c151,10.1,219.7,215,315.3,208.3 c0,0-164.9,134.1-307.4,157.5c-104.3,15.9-211.5-44.2-236.1-188.1C1216.8,1187.7,1223.6,1144.6,1227.8,1102.3z" class="st1"/></g></g><polygon points="1226.1 2003.5 537.9 1606.2 537.9 1644 1226.1 2041.4 1905.9 1648.9 1905.9 1611.1" class="st1"/><polygon points="537.9 1529.5 537.9 1567.4 1226.1 1964.8 1905.9 1572.3 1905.9 1534.4 1226.1 1926.9" class="st1"/><polygon points="1226.1 1888.1 1905.9 1495.7 1905.9 1457.8 1226.1 1850.3 537.9 1452.9 537.9 1490.8" class="st1"/><polygon points="1221.9 1138.3 567.2 790.6 581.7 763.4 1221.9 1103.3 1862.1 763.4 1876.6 790.6" class="st1"/><rect width="30.8" height="632.8" x="1206.5" y="1102.3" class="st1"/><path d="M1221.9,1775.5l-682.5-394V731.9l682.5-330.7l682.5,330.7v649.7L1221.9,1775.5z M609.4,1341.1l612.5,353.6 l612.5-353.6V775.7l-612.5-296.8L609.4,775.7V1341.1z" class="st1"/><rect width="30.8" height="632.8" x="1206.5" y="1102.3" class="st1"/><polygon points="1226.1 2003.5 537.9 1606.2 537.9 1644.1 1226.1 2041.4 1905.9 1648.9 1905.9 1611.1" class="st1"/><polygon points="537.9 1529.5 537.9 1567.4 1226.1 1964.8 1905.9 1572.3 1905.9 1534.4 1226.1 1926.9" class="st1"/><polygon points="1226.1 1888.1 1905.9 1495.7 1905.9 1457.8 1226.1 1850.3 537.9 1452.9 537.9 1490.8" class="st1"/><polygon points="1221.9 1138.3 567.2 790.6 581.7 763.4 1221.9 1103.3 1862.1 763.4 1876.6 790.6" class="st1"/></g></svg>