<svg xmlns="http://www.w3.org/2000/svg" xmlns:svg="http://www.w3.org/2000/svg" id="svg27" width="500" height="500" version="1.1" xml:space="preserve"><rect id="backgroundrect" width="100%" height="100%" x="0" y="66.049" style="fill:none;stroke:none"/><metadata id="metadata3719"/><defs id="defs3717"><clipPath id="clipPath3729" clipPathUnits="userSpaceOnUse"><path id="path3727" d="M 0,325.463 H 1260.816 V 0 H 0 Z"/></clipPath></defs><g id="g25" class="currentLayer" transform="translate(0,66.049338)"><title id="title7">Layer 1</title><g id="g43" transform="translate(58.598502,-22.932628)"><g style="stroke-width:0" id="g3731"><path style="fill:#3058a6;fill-opacity:1;fill-rule:nonzero;stroke:none;stroke-width:0" id="path3733" d="m 329.68744,206.93697 c 0,76.40399 -61.93733,138.34132 -138.33999,138.34132 -76.404,0 -138.34132,-61.93733 -138.34132,-138.34132 0,-76.404 61.93733,-138.339992 138.34132,-138.339992 76.40266,0 138.33999,61.935992 138.33999,138.339992"/></g><g style="stroke-width:0" id="g3735"><path style="fill:#3058a6;fill-opacity:1;fill-rule:nonzero;stroke:none;stroke-width:0" id="path3737" d="m 191.34706,331.42722 c -68.64533,0 -124.490653,-55.84667 -124.490653,-124.49066 0,-68.64533 55.845333,-124.490653 124.490653,-124.490653 68.64533,0 124.492,55.845333 124.492,124.490653 0,68.64399 -55.84667,124.49066 -124.492,124.49066"/></g><g style="stroke-width:0" id="g3739"><path style="fill:#fff;fill-opacity:1;fill-rule:nonzero;stroke:none;stroke-width:0" id="path3741" d="m 191.34706,327.5835 c -66.63199,0 -120.647992,-54.01333 -120.647992,-120.64666 0,-66.63067 54.016002,-120.647997 120.647992,-120.647997 66.632,0 120.64799,54.017327 120.64799,120.647997 0,66.63333 -54.01599,120.64666 -120.64799,120.64666 m 0,-248.97999 c -70.764,0 -128.334657,57.57067 -128.334657,128.33333 0,70.76399 57.570667,128.33465 128.334657,128.33465 70.764,0 128.33466,-57.57066 128.33466,-128.33465 0,-70.76266 -57.57067,-128.33333 -128.33466,-128.33333"/></g><g style="stroke-width:0" id="g3743"><path style="fill:#fff;fill-opacity:1;fill-rule:nonzero;stroke:none;stroke-width:0" id="path3745" d="m 236.53705,252.8387 -6.69067,29.01066 -1.62133,7.02267 -7.20667,-0.003 -37.028,-0.0147 h -0.072 l -0.0733,-0.003 c -14.848,-0.248 -26.50266,-4.188 -34.148,-11.15867 6.60667,11.64 20.62133,18.388 40.19067,18.71067 h 0.0707 0.0747 l 37.02667,0.016 7.208,0.004 1.62,-7.02267 6.69066,-29.01066 -5.224,-11.088 z"/></g><g style="stroke-width:0" id="g3747"><path style="fill:#fff;fill-opacity:1;fill-rule:nonzero;stroke:none;stroke-width:0" id="path3749" d="m 224.89838,128.44804 -5.284,-10.99733 -0.75734,3.44533 -5.024,22.868 h 7.70134 z"/></g><g style="stroke-width:0" id="g3751"><path style="fill:#fff;fill-opacity:1;fill-rule:nonzero;stroke:none;stroke-width:0" id="path3753" d="m 251.63025,154.90189 -6.66933,28.22 -1.648,6.97333 h -7.164 -32.96134 l -10.19066,46.52533 c -0.21334,1.33067 -0.35334,2.68667 -0.35334,3.428 0,0.66933 0.0827,1.088 0.144,1.28533 0.24134,0.112 0.94134,0.36667 2.39334,0.41467 h 0.88933 3.5 l 9.66,-44.10133 h 32.95866 7.164 l 1.648,-6.97333 6.672,-28.22 -5.19466,-11.13867 z"/></g><g style="stroke-width:0" id="g3755"><path style="fill:#fff;fill-opacity:1;fill-rule:nonzero;stroke:none;stroke-width:0" id="path3757" d="m 152.07092,190.09456 h -24.37866 -3.588 l 9.62933,7.552 h 16.68533 z"/></g><g style="stroke-width:0" id="g3759"><path style="fill:#fff;fill-opacity:1;fill-rule:nonzero;stroke:none;stroke-width:0" id="path3761" d="m 196.0696,250.80482 h -1.02 c -7.792,-0.2 -11.46267,-4.25199 -11.46267,-10.756 0,-1.53866 0.25867,-3.59333 0.51333,-5.13199 l 11.80133,-53.876 h 40.248 l 6.66933,-28.22134 h -40.24666 l 7.44,-33.86666 h -32.83733 l -7.44267,33.86666 H 134.1056 l -6.41333,28.22134 h 35.62666 l -13.85466,63.36933 c -0.76934,3.07733 -1.02667,6.668 -1.02667,8.46533 0,18.08267 14.26267,26.56933 35.55867,26.92133 l 37.02666,0.0187 6.692,-29.01067 H 204.7496 Z"/></g></g></g></svg>